<svg viewbox="0 0 280 280" xmlns="http://www.w3.org/2000/svg">
  <path d="M68.4,34.50000610351563 c0,19 -15.3,34.5 -34.2,34.5 c-18.9,0 -34.2,-15.4 -34.2,-34.5 c0,-19 15.3,-34.5 34.2,-34.5 C53.099999999999994,0.000006103515630684342 68.4,15.50000610351563 68.4,34.50000610351563 zM63.400000000000006,93.40000610351564 h-57.8 V280.20000610351565 h57.8 V93.40000610351564 zM155.8,93.40000610351564 h-55.4 V280.20000610351565 h55.4 c0,0 0,-69.3 0,-98 c0,-26.3 12.1,-41.9 35.2,-41.9 c21.3,0 31.5,15 31.5,41.9 c0,26.9 0,98 0,98 h57.5 c0,0 0,-68.2 0,-118.3 c0,-50 -28.3,-74.2 -68,-74.2 c-39.6,0 -56.3,30.9 -56.3,30.9 v-25.2 H155.8 z" id="svg_1" class=""/>
</svg>